<svg xmlns="http://www.w3.org/2000/svg" width="20" height="20" fill="none" viewBox="0 0 20 20">
  <path fill="#7952B3" d="M4.255 2.17c-1.12 0-1.95.981-1.913 2.046.035 1.023-.011 2.348-.345 3.428-.334 1.084-.9 1.769-1.824 1.857v.998c.924.088 1.49.773 1.824 1.857.334 1.08.38 2.405.345 3.428-.038 1.065.792 2.046 1.913 2.046h11.491c1.121 0 1.951-.981 1.914-2.046-.036-1.023.01-2.348.344-3.428.334-1.084.899-1.769 1.823-1.857v-.998c-.924-.088-1.488-.773-1.823-1.857-.333-1.08-.38-2.405-.344-3.428.037-1.065-.793-2.046-1.914-2.046H4.256Zm9.08 9.638c0 1.466-1.093 2.355-2.909 2.355H7.08a.077.077 0 0 1-.077-.077V5.91a.077.077 0 0 1 .077-.076h3.33c1.513 0 2.507.82 2.507 2.078 0 .883-.668 1.674-1.52 1.812v.046c1.16.128 1.94.93 1.94 2.038ZM10.09 6.89H8.327v2.488h1.484c1.148 0 1.78-.462 1.78-1.287 0-.774-.544-1.201-1.502-1.201Zm-1.762 3.475v2.742h1.827c1.195 0 1.828-.48 1.828-1.38 0-.9-.65-1.362-1.904-1.362h-1.75Z"/>
</svg>
