<svg xmlns="http://www.w3.org/2000/svg" width="20" height="20" fill="none" viewBox="0 0 20 20">
  <path fill="#092E20" stroke="#092E20" d="M12.059.5v14.22c-1.45.259-2.556.364-3.747.364-1.93 0-3.312-.438-4.206-1.213-.882-.764-1.367-1.926-1.367-3.554 0-1.553.512-2.792 1.38-3.642.87-.851 2.144-1.358 3.747-1.358.496 0 .857.039 1.296.154l.626.163V.5h2.27Zm-2.27 6.759-.342-.113a3.743 3.743 0 0 0-1.262-.196c-.933 0-1.732.29-2.293.89-.557.597-.82 1.435-.82 2.413 0 .954.251 1.77.806 2.348.558.581 1.353.848 2.285.848a8.15 8.15 0 0 0 1.193-.089l.432-.058V7.259ZM17.26 5.55v7.082c0 2.603-.194 3.748-.705 4.714l-.004.006c-.445.872-1.015 1.445-2.242 2.088l-1.903-.905c.934-.546 1.515-1.125 1.915-1.943h.001c.527-1.053.67-2.25.67-5.086V5.55h2.269Zm0-5.033v2.356h-2.269V.517h2.27Z"/>
</svg>
