<svg xmlns="http://www.w3.org/2000/svg" width="20" height="20" fill="none" viewBox="0 0 20 20">
  <path fill="#000" d="M6.944 15.723c-.661-.52-1.366-1.018-1.849-1.72a13.938 13.938 0 0 1-2.328-4.178c-.323-.98-.433-2.03-.85-2.972-.434-.684.075-1.431.824-1.648.332-.064.92-.38.212-.153-.634.465-.695-.424-.045-.48.444-.06.608-.422.456-.75-.476-.311 1.156-.653.334-1.117-.856-.924 1.197-1.102.691-.052-.12.806 1.434-.148 1.074.783.367.447 1.375.102 1.348.73.534.037.719.486 1.219.52.52.234 1.462.42 1.639 1.006-.516.408-1.711-.844-1.767.288.156 1.67.115 3.39.726 4.981.29.963.99 1.72 1.622 2.47.606.735 1.425 1.252 2.262 1.688a9.32 9.32 0 0 0 2.324.719c.323-.249.897-1.17 1.402-.782.024.438-1.004.913-.049.866.561-.169.95.433 1.413-.111.425.505 1.768-.322 1.465.708-.41.264-1.006.105-1.417.469-.676-.338-1.214.301-1.962.221-.832.149-1.677.21-2.52.21-1.384-.11-2.796-.155-4.11-.636-.74-.216-1.464-.638-2.114-1.06Zm1.167.507c.723.312 1.431.642 2.223.742 1.258.175 2.558.444 3.82.198-.571-.258-1.162.1-1.73-.184-.683.147-1.416-.038-2.11-.128-.789-.352-1.64-.594-2.38-1.05-.923-.338.479.433.727.495.577.328-.634-.169-.806-.305-.483-.271-.546-.214-.049.061.1.058.2.12.305.17Zm-1.377-.974c.702.26-.003-.494-.323-.45-.142-.247-.544-.403-.261-.536-.51.177-.534-.671-.773-.551-.54-.17-.21-.774-.852-1.144-.058-.39-.637-.728-.822-1.317-.081-.302-.655-1.166-.303-.361.3.775.827 1.439 1.266 2.101.34.632.743 1.291 1.362 1.685.21.203.411.51.706.573Zm-2.02-2.217c.025-.106.128.228 0 0Zm2.86 2.528c.156-.069-.224-.087 0 0Zm.38.14c-.038-.193-.173.107 0 0Zm.477.198c.227-.216-.35-.136 0 0Zm.816.454c.139-.203-.44-.076 0 0ZM7.68 15.267c.351-.228-.455-.003 0 0Zm.358.178c-.011-.12-.129.053 0 0Zm1.785 1.114c.288.182 1.677.397.807.075-.146.032-1.614-.415-.807-.075Zm-2.835-2.207c-.029-.12-.446-.133 0 0Zm.83.484c.218-.15-.448-.116 0 0Zm.7.43c.31-.117-.504-.117 0 0Zm-1.87-1.283c.338.258 1.36.033.516-.155-.383-.204-1.248-.344-.66.124l.144.03Zm2.344 1.431c.14-.239-.589-.137 0 0Zm-.712-.567c.823.233-.692-.522-.203-.086l.109.05.094.036Zm1.428.825c.78.008-.705-.106 0 0Zm-3.36-2.14c-.03-.146-.192.012 0 0Zm4.679 2.88c.022-.262-.253.196 0 0ZM7.68 14.348c-.047-.138-.244-.006 0 0Zm-1.257-.906c.447-.027-.614-.197 0 0Zm-1.49-.963c-.056-.216-.488-.386 0 0Zm3.91 2.481c-.08-.093-.038.02 0 0Zm2.435 1.494c-.008-.142-.133.055 0 0Zm-2.65-1.715c.044-.185-.381-.057 0 0Zm-1.812-1.15c.332-.036-.535-.225 0 0Zm3.067 1.906c.519-.207-.506-.1 0 0ZM8.288 14.41c.598.077-.713-.408-.132-.044l.132.044Zm2.08 1.28c.559-.335.374.783.948.093.565-.412-.49.511.207.074.505-.338 1.249.16 1.72.322.337-.017.666.292 1.013.104.668-.18-1.306-.267-.789-.585-.61.178-1.062-.213-1.362-.604-.686-.158-1.478-.508-1.82-1.115-.14-.228.201.032-.12-.34-.413-.368-.62-.785-.896-1.232-.331-.177-.37-.697-.403-.017.003-.428-.4-.717-.499-.597-.001-.413.431-.207.128-.511-.065-.428-.28-.874-.343-1.356-.1-.233-.014-.732-.343-.205-.118.558-.039-.684.147-.275.244-.417-.087-.369-.101-.311.16-.353.1-.853-.042-.663.084-.373.134-1.375-.127-1.196.158-.391.3-1.788-.386-1.255-.278.005-.758.1-.986.214.713.392-.072.142-.362.08-.038.364-.325.206-.685.209.574.07-.28.586-.608.386-.428.205.37.714.008.872.044.237-.654-.086-.6.462-.414-.175-.056.65.15.372.705.19.497.627.514 1.04-.115.24-.567-.566-.1-.529-.368-.598-.408-.215-.712.061-.07.02.78.395.245.581.47.074.484.485.58.744.283.294.225-.325.562.028-.214-.315-1.133-.887-.393-.704-.005-.318-.135-.574.093-.568.225-.406-.236 1.004.27.486.141-.06.176-.406.427.033.366.36.133.62-.384.29.092.315.69.426.578.916.119.432.286.272.431.247.114.419.178.111.185-.089.521.113.4.42.562.636.36.163-.514-1.1.103-.38.65.586.244.832-.339.738.369-.03.488.498.949.48.42.2.706.968-.02.648-.25-.226-1.141-.506-.413-.075.672.311 1.204.497 1.853.888.462.33.664.709.839.784-.39.186-1.174-.149-.59-.252-.365-.065-.773-.25-.424.204.295.246 1.048.221 1.184.248-.114.252-.31.272.005.29-.352.191.112.22.145.329Zm-.72-2.032c-.214-.223-.268-.642-.037-.278.117.047.38.685.037.278Zm2.343 1.488c.133-.01.003.101 0 0ZM9.31 13.11c-.01-.34.077.26 0 0Zm-.233-.314c-.27-.519.34.148 0 0ZM6.256 10.85c.158-.042.078.27 0 0Zm2.246 1.217c.096-.364.114.306 0 0Zm-1.586-1.103c-.111-.202.234.19 0 0Zm1.36.436c-.254-.57.182-.313.057.094l-.056-.094ZM5.93 9.836c-.114-.188-.302-.738-.242-.905.054.274.58 1.177.257.374-.356-.672.427.218.508.386.038.167-.22-.046-.045.345-.319-.445-.188.247-.478-.2Zm-.725-.5c.03-.436.165.298 0 0Zm.325.112c.156-.33.264.458 0 0Zm-.785-.607c-.27-.27-.465-.516.013-.168.184.008-.41-.562.044-.18.478.087.236.782-.057.348Zm.413-.011c.156-.155.083.153 0 0Zm.253.081c-.238-.445.289.187 0 0Zm-.503-.481c-.785-.699.986.365.128.13l-.128-.13Zm2.248 1.306c-.34-.203-.09-1.434.025-.592.33-.106-.018.434.228.43-.037.34-.148.463-.253.162Zm.833.492c.033-.372.07.253 0 0Zm-.145-.144c.037-.157.004.188 0 0ZM5.06 8.2c-.505-.695 1.466.705.323.177-.12-.033-.264-.044-.323-.177Zm1.603.848c-.048-.585.106.097 0 0Zm1.216.782c.093-.335.008.22 0 0ZM5.14 7.934c.3-.064 1.241.527.376.17-.097-.109-.302-.06-.377-.17Zm2.573 1.283c.03-.6.18-.358.001.086l-.001-.086ZM5.36 7.725c.122-.18-.325-.81.064-.227.169.133.486.224.205.28.443.39-.107.106-.269-.053ZM7.586 9.03c.084-.683.073.4 0 0Zm-2.48-1.935c.094-.04.05.124 0 0Zm.58.346c.15-.314.277.348 0 0Zm1.636.909c0-.12.031.175 0 0Zm-.094-.21c-.226-.56.211.298 0 0Zm-.139-.367c-.039-.23.13.291 0 0Zm.227-.368c-.157-.275.197-1.211.236-.63-.164.452-.047.705.067.098.212-.478-.046.941-.303.532Zm.232-1.392c.07-.083.016.101 0 0Zm-.389 7.675c-.092-.082.011.051 0 0Zm.802.406c.447.115.444-.069.04-.124-.217-.201-.901-.415-.288-.025.042.102.17.099.248.149ZM6.377 13.04c.245.184.926.518.35.07.193-.225-.372-.345-.185-.497-.478-.292-.376-.266-.042-.256-.573-.256.083-.238.052-.369-.222-.044-1.099-.39-.583.028-.525-.267-.125.1-.285.061-.537-.147.479.41-.084.27.308.244.828.625.13.258-.09.133.501.335.647.435Zm.839.482c1.02.329-.5-.403 0 0Zm4.296 2.602c.013-.203-.14.174 0 0Zm.441.186c.236-.228.01.364.39-.056.005-.3-.01-.478-.437-.113-.117.066-.17.342.047.169Zm-7.008-4.402c-.073-.284-.507-.282 0 0Zm.47.31c-.174-.29-.624-.263 0 0Zm2.683 1.617c.263.233 1.204.17.318.028-.13-.194-.832-.147-.318-.028Zm3.688 2.277c.402-.338-.39.151 0 0Zm.838.576c.003-.108-.174.047 0 0Zm.001-.151c.447-.474-.433.028 0 0Zm-8.84-5.599c-.38-.542-.237-.786-.604-1.23-.07-.339-.63-1.107-.289-.293.311.476.403 1.214.892 1.523Zm8.7 5.448c.821-.53-.336-.23 0 0Zm.626.246c.412-.353-.26-.074 0 0Zm-8.306-5.324c.118-.175-.303-.021 0 0Zm8.176 5.155c.399-.256-.092-.217-.072.024l.072-.024ZM7.578 13.06c-.014-.173-.21.014 0 0Zm.335.193c-.108-.216-.165.032 0 0Zm5.707 3.385c.511-.368-.309-.07-.106.07l.106-.07Zm-.196-.093c.417-.349-.438.154 0 0Zm.998.664c.28-.186-.34-.06 0 0ZM5.06 11.183c.373.084 1.494.92.833.058-.34-.1-.136-.928-.481-.782.23.388.19.552-.297.308-.611-.298-.344.147-.224.27-.162.04.217.143.169.146ZM3.358 9.838c.067-.277-.617-1.524-.324-.625.107.189.096.545.324.625Zm3.126 1.928c-.192-.161-.009-.024 0 0Zm.474.11c0-.293-.524-.12 0 0Zm4.11 2.59c-.079-.2-.31-.003 0 0Zm.196.145c-.028-.113-.112.022 0 0Zm1.63 1.025c.156-.116-.196-.014 0 0Zm-8.686-5.581c.448-.174-.48-.124 0 0Zm6.498 4.094c-.006-.291-.286.071 0 0ZM4.031 9.642c.288-.097-.267-.064 0 0Zm.835.405c-.005-.095-.088.036 0 0Zm10.19 6.248c.37-.075 1.214.19 1.35-.098-.45-.011-1.554-.317-1.606.072l.098.015.158.011Zm-9.925-6.18c.008-.295-.228-.012 0 0ZM2.936 8.59c-.1-.56-.38-.085 0 0Zm.523.13c.007-.179-.48-.16 0 0Zm.299.148c-.086-.069-.067.089 0 0Zm1.884 1.208c.09-.082-.21-.06 0 0ZM3.56 8.537c-.051-.423-.606-.062 0 0Zm-1.073-.696c-.016-.196-.105.073 0 0Zm.16-.12c-.027-.232-.138.029 0 0Zm.882.526c.374-.147-.68-.303-.076-.028l.076.028Zm11.811 7.295c.24-.219-.303-.067 0 0Zm1.427.74c.095-.282-.241.037 0 0ZM3.617 7.785c.04-.273-.295.055 0 0Zm-1.254-.84c-.068-.386-.058-1.066.587-.836-.86.172.597 1.07.413.36.362.018.707-.213.518.138.714-.078 1.208-.697 1.897-.61.538-.073 1.124-.126 1.702-.341.475-.035.933-.547.673-.85-.648-.055-1.328.026-2.044.168-.793.166-1.515.479-2.317.615-.781.104.156.289-.067.33-.408.14.486.237-.053.385-.333-.064-.68-.178-.538-.528-.748.097-1.406.408-.814 1.169h.043Zm1.803-.919c.175-.647.939.531.287.086-.078-.06-.206-.106-.287-.086Zm.034-.314c.253-.188.134.106 0 0Zm.322.006c.023-.297.736.158.117.106l-.117-.106Zm.439-.178c.16-.187.047.167 0 0Zm.112-.075c.268-.322 1.515-.205.602-.031-.244-.185-.431.11-.602.031Zm1.629-.25c-.041-.878.809.311 0 0Zm.462-.003c.169-.442.656-.178.078-.09.013.048-.017.229-.078.09ZM3.436 7.558c.505-.31-.536-.269 0 0Zm.373.103c.177-.188-.384-.077 0 0Zm-1.1-.78c.29-.222-.34-.084 0 0Zm14.899 9.32c.008-.257-.22.116 0 0Zm-1.514-1.032c.043-.297-.194.025 0 0Zm1.931 1.133c.403.001 1.222-.125.344-.125-.138.02-.802.017-.344.125ZM4.138 7.48c.326-.022.51-.36-.065-.34-.889-.093.785.304-.114.19-.12.08.17.172.179.15Zm.287.145c-.034-.21-.102.111 0 0Zm.34-.91c.141-.174-.196-.046 0 0ZM3.68 4.904c.583-.198 1.378-.42 1.653.097-.28-.336-.113-.669.151-.175.374.498.561-.227.318-.394.276.344.592.507.186.022.442-.531-.885.07-1.186.064-.144.064-1.497.344-1.122.386Zm.342-.653c.333-.25 1.148.15.625-.248-.052-.047-1.149.301-.625.248Zm1.21.05c.39.01-.166-.522.296-.281-.076-.249-.539-.296-.765-.394-.129.227.259.678.47.675Zm-.998-1.1c.135-.181-.236.094 0 0Zm.494.119c.627-.083-.16-.269-.126-.006l.126.006Zm-.923-.722c-.44-.577.83.097.38-.506-.376-.3-.738.337-.38.506Zm5.658 3.047c.201-.358-.835-.483-.136-.127.065.022.05.152.136.127Z"/>
</svg>
