<svg xmlns="http://www.w3.org/2000/svg" width="20" height="20" fill="none" viewBox="0 0 20 20">
  <path fill="#F0DB4F" d="M.22.22h19.56v19.56H.22V.22Z"/>
  <path fill="#323330" d="M18.18 15.115c-.144-.892-.726-1.642-2.45-2.34-.598-.276-1.266-.473-1.465-.927-.07-.264-.08-.413-.035-.572.128-.52.747-.68 1.238-.532.316.106.616.35.796.738.844-.546.842-.543 1.432-.919-.216-.334-.331-.489-.472-.632-.508-.567-1.2-.859-2.306-.836l-.576.074c-.552.14-1.079.43-1.387.818-.926 1.05-.662 2.89.465 3.646 1.11.833 2.74 1.023 2.949 1.802.202.954-.701 1.263-1.6 1.153-.662-.138-1.03-.474-1.428-1.086-.732.424-.732.424-1.485.857.178.39.366.567.665.905 1.417 1.438 4.963 1.367 5.599-.808.026-.075.197-.573.06-1.341ZM10.853 9.21h-1.83l-.008 4.73c0 1.006.052 1.928-.111 2.21-.268.557-.961.488-1.277.38-.322-.158-.486-.383-.675-.7-.052-.092-.091-.163-.105-.168l-1.487.91c.247.508.612.949 1.078 1.235.698.419 1.635.547 2.615.322.637-.186 1.188-.57 1.476-1.157.416-.768.327-1.697.323-2.725.01-1.678 0-3.354 0-5.037Z"/>
</svg>
