<svg xmlns="http://www.w3.org/2000/svg" width="20" height="20" fill="none" viewBox="0 0 20 20">
  <path fill="#336791" fill-rule="evenodd" d="M19.26 11.998c-.071-.456-.454-.755-.9-.775a2.849 2.849 0 0 0-.485.03c-.195.024-.387.068-.58.097-.134.02-.27.03-.404.043l-.003-.017c.25-.472.51-.938.746-1.416.181-.367.336-.748.496-1.125a14.56 14.56 0 0 0 .652-1.923c.168-.627.312-1.26.357-1.91.018-.26.03-.52.03-.78-.002-.208-.024-.416-.045-.622a2.127 2.127 0 0 0-.194-.678c-.13-.285-.333-.518-.546-.74a7.61 7.61 0 0 0-.545-.501 4.553 4.553 0 0 0-.873-.579 5.027 5.027 0 0 0-1.108-.43c-.233-.06-.472-.103-.708-.15-.085-.018-.17-.053-.255-.053h-1.6c-.058 0-.115.03-.174.036a6.084 6.084 0 0 0-1.13.229c-.137.043-.262.016-.393.004-.1-.01-.199-.036-.299-.041-.381-.02-.763-.047-1.145-.043a4.11 4.11 0 0 0-1.08.164 3.617 3.617 0 0 0-.852.342c-.113.067-.203.054-.32.02-.396-.113-.793-.22-1.194-.31a6.67 6.67 0 0 0-.763-.11A8.94 8.94 0 0 0 4.487.73a4.713 4.713 0 0 0-1.119.236 3.72 3.72 0 0 0-1.107.604c-.339.268-.61.595-.829.969a4.34 4.34 0 0 0-.486 1.26c-.053.24-.086.486-.123.73-.011.076.115.152-.042.228v1.061c.156.07.033.141.042.212.022.17.04.342.07.51.045.268.099.535.154.8.076.371.157.742.241 1.111.062.269.133.536.207.802.112.406.223.813.35 1.214.119.373.254.74.389 1.108.186.509.409 1.001.676 1.473.23.408.495.79.85 1.105.233.208.492.367.795.447.238.062.48.07.722.02.278-.056.536-.18.754-.361.026-.021.054-.037.084.002.115.145.268.242.43.326.433.226.906.294 1.386.322.116.006.234-.01.351-.014.228-.006.45-.05.668-.114.115-.033.227-.075.343-.114.006.124.014.243.017.363l.017.65c.003.1.007.2.016.298.023.254.047.508.077.762.02.174.043.35.084.52.082.345.195.681.337 1.005.136.315.345.593.61.81.346.287.753.41 1.192.432.181.01.368.001.547-.032a7.64 7.64 0 0 0 .842-.199c.56-.17 1.046-.462 1.408-.934.206-.27.376-.561.485-.883.09-.266.174-.534.24-.806.054-.214.08-.435.113-.654.021-.145.034-.292.047-.437.022-.237.045-.474.06-.712.011-.165.01-.331.017-.497.002-.05.01-.1.015-.15.005-.047.028-.063.075-.063.168.003.335.007.502 0 .187-.009.376-.017.56-.048.263-.043.523-.1.78-.166a3.27 3.27 0 0 0 .85-.384c.312-.189.597-.41.828-.695.2-.248.296-.536.247-.85Zm-.534.153a.613.613 0 0 1-.17.37c-.45.494-1.012.794-1.655.942a5.686 5.686 0 0 1-1.39.123c-.156-.006-.312-.042-.473-.065-.016.147-.031.3-.05.453l-.075.585c-.023.185-.04.371-.063.557-.023.18-.052.359-.076.539-.022.167-.038.335-.063.502-.039.257-.075.514-.125.768a3.01 3.01 0 0 1-.302.872c-.183.335-.443.59-.774.778-.34.195-.713.296-1.09.38-.267.06-.543.07-.813.046a1.674 1.674 0 0 1-1.173-.607 2.437 2.437 0 0 1-.555-1.196 9.852 9.852 0 0 1-.076-.646c-.021-.24-.037-.481-.047-.722a39.113 39.113 0 0 1-.03-.917c-.01-.376-.012-.752-.017-1.128l-.001-.014c-.191.114-.38.24-.579.343-.233.12-.488.193-.75.212a4.01 4.01 0 0 1-.619.013c-.336-.027-.672-.08-.973-.245a1.083 1.083 0 0 1-.333-.256c-.202-.257-.105-.582.199-.739.21-.108.439-.153.667-.206.198-.045.394-.099.587-.16.191-.063.312-.218.43-.37l.19-.242-.228-.024a2.065 2.065 0 0 1-.644-.174c-.176-.078-.178-.086-.307.054-.215.233-.424.472-.635.71l-.463.524c-.153.173-.296.357-.46.518-.245.239-.54.383-.89.367a1.164 1.164 0 0 1-.618-.22c-.384-.266-.642-.64-.877-1.031a8.973 8.973 0 0 1-.73-1.588c-.137-.38-.274-.76-.394-1.145a31.15 31.15 0 0 1-.816-3.34c-.046-.25-.073-.503-.11-.755a5.05 5.05 0 0 1-.043-1.021c.017-.307.06-.613.105-.918.06-.421.2-.819.399-1.195A3 3 0 0 1 3.29 1.526a3.9 3.9 0 0 1 .85-.25c.433-.084.87-.08 1.308-.072.191.004.382.039.573.058.411.04.815.127 1.213.234.29.078.574.179.862.266.029.01.071.008.095-.007.39-.255.816-.423 1.27-.519.171-.036.349-.052.525-.063a5.32 5.32 0 0 1 .643-.014c.256.015.512.052.767.087.123.017.244.06.368.072.06.006.123-.038.185-.052.32-.074.64-.157.962-.215a6.14 6.14 0 0 1 .731-.078c.273-.016.547-.027.82-.014.345.017.688.065 1.024.144.418.098.82.239 1.201.435.285.147.556.317.8.526.16.137.323.273.468.425.178.189.36.377.471.619.084.182.144.37.16.57.021.247.046.496.044.744-.002.238-.034.475-.057.712a9.49 9.49 0 0 1-.312 1.588c-.12.43-.255.856-.405 1.277a20.88 20.88 0 0 1-.456 1.147 16.327 16.327 0 0 1-1.234 2.334c-.054.083-.106.17-.159.254a.965.965 0 0 0 .45.143c.15.016.302.026.45.015.24-.018.477-.052.714-.085.236-.033.466-.1.707-.082.241.017.413.2.397.426Zm-3.44-.524c-.102-.132-.206-.263-.306-.397-.158-.21-.27-.444-.384-.68-.108-.223-.24-.434-.353-.655-.197-.385-.399-.77-.58-1.162-.23-.493-.41-1.004-.467-1.55a2.26 2.26 0 0 1 .017-.692c.075-.365.266-.651.587-.848.298-.182.63-.24.97-.259.211-.011.423-.002.642-.002l-.007-.037c-.136-.285-.264-.575-.413-.853a5.351 5.351 0 0 0-.779-1.074 5.394 5.394 0 0 0-.726-.668 5.092 5.092 0 0 0-.823-.514 4.836 4.836 0 0 0-1.089-.387 5.356 5.356 0 0 0-1.105-.135 3.982 3.982 0 0 0-.947.083 2.99 2.99 0 0 0-1.272.615 3.304 3.304 0 0 0-.55.589 4.467 4.467 0 0 0-.466.824 5.749 5.749 0 0 0-.381 1.24c-.042.213-.074.428-.107.642-.012.075-.013.152-.02.238l.142-.074.139-.062c.467-.214.952-.352 1.472-.336.222.007.433.05.63.147.378.187.598.503.694.903.066.277.112.559.156.84.034.22.07.441.074.663.005.323-.01.647-.029.97a2.718 2.718 0 0 1-.168.805c-.175.468-.37.928-.552 1.393-.06.153-.107.312-.164.481h.23c.028 0 .057.002.084.008.21.05.39.144.54.305.198.215.302.465.308.755.003.16-.014.32-.013.481.003.748.008 1.496.015 2.244 0 .122.007.244.016.366.018.256.036.511.061.766.018.18.042.361.07.54.041.255.157.482.288.698.114.186.26.344.454.453.33.186.684.201 1.042.133.24-.046.478-.12.712-.197.23-.074.441-.2.615-.367.165-.16.281-.354.36-.568.152-.415.2-.853.263-1.287.024-.162.044-.325.066-.488l.073-.556.05-.414c.024-.198.05-.396.072-.595.018-.153.033-.307.049-.46.02-.197.042-.393.059-.59.013-.149.008-.3.034-.447.049-.268.176-.497.414-.644.1-.062.212-.103.322-.155l-.019-.029Zm-9-1.102a2.739 2.739 0 0 1-.21-.878c-.02-.285.013-.57.042-.853.029-.275.052-.552.06-.828.014-.454-.016-.907-.038-1.361-.013-.27.018-.544.043-.815a7.127 7.127 0 0 1 .42-1.915 4.67 4.67 0 0 1 .523-1.04c.154-.22.329-.426.497-.64l-.05-.018A8.385 8.385 0 0 0 5.9 1.808c-.27-.028-.542-.044-.813-.06-.083-.005-.167.006-.25.014-.207.02-.416.028-.62.066a3.054 3.054 0 0 0-.984.357c-.276.162-.508.37-.702.622a2.85 2.85 0 0 0-.462.923 4.65 4.65 0 0 0-.197 1.209c-.014.358-.02.719.041 1.076.047.266.077.535.128.8a33.596 33.596 0 0 0 .62 2.608c.139.484.296.964.466 1.438.139.387.3.766.469 1.141.11.244.244.479.384.707.149.243.318.473.548.65.29.222.515.257.81.013.125-.105.232-.234.342-.357.175-.195.343-.396.517-.592.221-.25.445-.497.667-.745l.138-.16-.075-.066a2.766 2.766 0 0 1-.64-.927Zm8.39-7.433c.181.212.354.431.517.657.312.44.562.913.746 1.42.081.224.146.45.117.694-.02.171-.018.345-.034.517-.012.143-.035.286-.053.429-.028.215-.069.43-.08.646-.012.206 0 .414.013.62.013.21.041.418.06.627.022.237.051.475.058.712.006.195-.012.392-.029.587a2.34 2.34 0 0 1-.168.68c-.063.153-.137.302-.208.455l.029.03.043.034.043-.078c.365-.575.69-1.175.972-1.796.18-.4.352-.805.514-1.213.253-.635.454-1.288.61-1.954.07-.299.122-.602.17-.906a5.76 5.76 0 0 0 .074-.716 6.318 6.318 0 0 0-.03-.763 1.019 1.019 0 0 0-.184-.54 3.41 3.41 0 0 0-.657-.679c-.215-.16-.43-.323-.66-.457a4.242 4.242 0 0 0-1.178-.45 5.926 5.926 0 0 0-1.227-.144c-.243-.005-.487.021-.73.044-.22.02-.438.056-.66.085.238.133.473.252.694.392.464.294.88.648 1.238 1.067ZM8.64 11.33c.15-.48.355-.938.553-1.4.16-.374.249-.768.278-1.172a6.973 6.973 0 0 0-.06-1.267 9.515 9.515 0 0 0-.156-.84c-.072-.299-.254-.507-.566-.583a1.425 1.425 0 0 0-.571-.015c-.47.074-.898.247-1.298.5-.08.05-.125.092-.111.207.03.245.036.493.034.74-.001.35-.016.699-.03 1.048-.004.114-.02.227-.032.34-.019.174-.055.347-.054.52.001.179.02.361.063.534.137.548.428.996.906 1.313.293.194.618.292.975.311.024-.082.046-.16.07-.236Zm-.56-4.7c-.063-.133-.027-.242.119-.292a.464.464 0 0 1 .109-.03c.05-.005.102-.001.153-.001.185 0 .363.027.515.144.098.075.124.175.06.278a.486.486 0 0 1-.394.233c-.265.022-.452-.102-.562-.333Zm7.35-.049c.021-.176.038-.352.06-.527.009-.07-.028-.09-.088-.092l-.558-.015c-.21-.004-.415.03-.609.11-.216.089-.38.231-.447.466a1.414 1.414 0 0 0-.046.532c.026.277.09.55.187.81.13.346.266.693.43 1.026.22.45.47.886.705 1.329.062.118.115.242.18.38.132-.275.204-.574.211-.879.007-.251-.013-.504-.028-.756-.01-.154-.031-.307-.046-.46-.021-.215-.053-.429-.058-.644a6.242 6.242 0 0 1 .03-.655c.018-.21.052-.417.077-.625Zm-.42-.169a.496.496 0 0 1-.41.33.465.465 0 0 1-.451-.179c-.083-.101-.051-.222.073-.29.143-.08.3-.1.485-.111.05.009.126.017.198.037.104.03.143.108.105.213Zm-5.535 5.884c-.102-.083-.237-.088-.335.004-.12.114-.227.244-.333.373-.123.148-.238.303-.396.418-.23.167-.499.237-.768.302-.215.053-.43.101-.646.151l-.002.028c.064.03.125.066.192.088a2.61 2.61 0 0 0 1.009.126 2.05 2.05 0 0 0 .714-.183c.311-.147.55-.381.754-.652a.334.334 0 0 0 .053-.171c.014-.207-.09-.36-.242-.484Zm8.086.083c-.264.028-.528.058-.793.073-.128.007-.257-.017-.386-.027a1.326 1.326 0 0 1-.611-.182.323.323 0 0 0-.307-.036c-.16.054-.291.136-.33.31-.026.118-.036.24-.046.36-.002.021.024.06.044.066.124.033.249.071.376.082.155.014.314.01.47.002.17-.008.34-.02.507-.047.393-.066.773-.174 1.11-.397.122-.08.243-.162.364-.244l-.01-.017c-.13.02-.258.043-.388.057Z" clip-rule="evenodd"/>
</svg>
