<svg xmlns="http://www.w3.org/2000/svg" width="20" height="20" fill="none" viewBox="0 0 20 20">
  <path fill="#38B2AC" d="M10 4C7.335 4 5.669 5.333 5 8c1-1.333 2.167-1.833 3.5-1.5.761.19 1.305.742 1.908 1.353C11.388 8.848 12.523 10 15 10c2.666 0 4.332-1.333 5-4-1 1.333-2.167 1.833-3.5 1.5-.761-.19-1.305-.742-1.908-1.353C13.613 5.152 12.48 4 10.001 4Zm-5 6c-2.666 0-4.332 1.333-5 4 1-1.333 2.167-1.833 3.5-1.5.761.19 1.305.742 1.908 1.353C6.388 14.848 7.523 16 10 16c2.666 0 4.332-1.333 5-4-1 1.333-2.167 1.833-3.5 1.5-.761-.19-1.304-.742-1.908-1.353C8.613 11.152 7.48 10 5.001 10Z"/>
</svg>
