<svg xmlns="http://www.w3.org/2000/svg" width="20" height="20" fill="none" viewBox="0 0 20 20">
  <path fill="#000" d="m17.033 4.475-5.896-3.5a2.223 2.223 0 0 0-2.275.002l-5.896 3.5a2.351 2.351 0 0 0-1.138 2.025v7c0 .835.433 1.607 1.138 2.024l5.895 3.5c.351.21.744.313 1.137.313s.786-.105 1.138-.313l5.897-3.5a2.353 2.353 0 0 0 1.137-2.024V6.5a2.35 2.35 0 0 0-1.137-2.025Zm-4.566 10.93.01.503c0 .06-.04.13-.086.155l-.299.171c-.047.024-.087-.004-.087-.065L12 15.673c-.255.107-.514.132-.678.066-.031-.013-.045-.058-.033-.11l.108-.456a.192.192 0 0 1 .053-.093.106.106 0 0 1 .028-.02c.017-.01.034-.012.049-.005.178.059.404.03.623-.079.278-.14.464-.425.46-.706-.002-.256-.14-.36-.476-.364-.428.002-.828-.083-.834-.714-.005-.519.264-1.06.692-1.4l-.005-.508c0-.062.038-.13.086-.156l.29-.184c.046-.024.087.006.087.067l.005.508c.212-.085.397-.108.564-.069.036.01.053.06.037.117l-.112.45a.2.2 0 0 1-.052.09.12.12 0 0 1-.03.023.075.075 0 0 1-.043.007c-.077-.017-.258-.056-.544.088-.3.152-.405.412-.403.606.003.232.12.302.53.308.545.01.78.247.786.795.007.538-.28 1.118-.72 1.47Zm4.116-9.453-5.578 3.445c-.696.406-1.208.862-1.21 1.701v6.874c0 .501.203.826.514.922a1.88 1.88 0 0 1-.309.03c-.327 0-.648-.09-.931-.257l-5.896-3.5A1.94 1.94 0 0 1 2.24 13.5v-7c0-.686.358-1.325.934-1.667l5.897-3.5a1.828 1.828 0 0 1 1.862 0l5.898 3.5c.486.289.814.787.906 1.348-.198-.417-.64-.53-1.153-.23Z"/>
  <path fill="#4FA847" d="m15.488 14.177-1.47.878c-.038.023-.067.048-.067.095v.384c0 .047.032.068.07.044l1.491-.906c.04-.024.046-.066.046-.113v-.339c0-.047-.031-.065-.07-.043Z"/>
</svg>
