<svg xmlns="http://www.w3.org/2000/svg" width="20" height="20" fill="none" viewBox="0 0 20 20">
  <path fill="#03599C" d="m18.36 5.234.046-.03a1.054 1.054 0 0 0-.375-.407L10.484.453c-.125-.078-.296-.11-.484-.11s-.36.048-.484.11l-7.5 4.36c-.266.156-.454.546-.454.843v8.703c0 .172.032.36.141.532l-.031.015a.897.897 0 0 0 .297.297l7.531 4.36c.125.078.297.109.484.109.188 0 .36-.047.485-.11l7.5-4.359c.265-.156.453-.547.453-.844V5.641a.765.765 0 0 0-.063-.407ZM10 13.828a3.83 3.83 0 0 0 3.328-1.937l2.016 1.187A6.173 6.173 0 0 1 10 16.172 6.175 6.175 0 0 1 3.828 10 6.175 6.175 0 0 1 10 3.828a6.175 6.175 0 0 1 5.36 3.125l-2.032 1.172A3.812 3.812 0 0 0 10 6.172 3.834 3.834 0 0 0 6.172 10 3.834 3.834 0 0 0 10 13.828Z"/>
</svg>
