<svg xmlns="http://www.w3.org/2000/svg" width="20" height="20" fill="none" viewBox="0 0 20 20">
  <path fill="#0074BD" d="M7.44 15.331s-.745.434.53.58c1.547.176 2.336.151 4.04-.17 0 0 .448.28 1.073.523-3.818 1.636-8.642-.095-5.643-.933Zm-.467-2.135s-.835.619.441.75c1.651.171 2.955.185 5.212-.25 0 0 .311.317.802.49-4.616 1.35-9.757.106-6.455-.99Z"/>
  <path fill="#EA2D2E" d="M10.907 9.574c.941 1.083-.247 2.058-.247 2.058s2.389-1.233 1.292-2.778c-1.025-1.44-1.81-2.155 2.443-4.622 0 0-6.677 1.667-3.488 5.342Z"/>
  <path fill="#0074BD" d="M15.957 16.91s.551.456-.608.807c-2.203.667-9.173.869-11.108.027-.696-.303.609-.723 1.02-.812.427-.092.672-.075.672-.075-.774-.545-5.002 1.07-2.148 1.533 7.785 1.262 14.19-.568 12.172-1.48Zm-8.158-5.927s-3.545.842-1.255 1.149c.966.129 2.893.1 4.689-.051 1.467-.124 2.94-.387 2.94-.387s-.518.222-.892.477c-3.6.947-10.554.506-8.552-.462 1.693-.819 3.07-.726 3.07-.726Zm6.359 3.555c3.66-1.901 1.967-3.728.786-3.482-.289.06-.418.112-.418.112s.107-.168.312-.24c2.336-.822 4.133 2.421-.753 3.706 0 0 .056-.051.073-.096Z"/>
  <path fill="#EA2D2E" d="M11.952.248s2.026 2.027-1.923 5.144c-3.166 2.501-.722 3.927 0 5.556-1.85-1.667-3.205-3.136-2.296-4.502C9.07 4.44 12.77 3.468 11.952.248Z"/>
  <path fill="#0074BD" d="M8.158 19.69c3.512.225 8.907-.124 9.034-1.786 0 0-.245.63-2.902 1.13-2.998.564-6.696.498-8.889.136 0 0 .45.372 2.757.52Z"/>
</svg>
