<svg xmlns="http://www.w3.org/2000/svg" width="20" height="20" fill="none" viewBox="0 0 20 20">
  <path fill="url(#a)" d="M9.905 1.914c-.66.003-1.29.059-1.844.157-1.633.288-1.929.892-1.929 2.006v1.47H9.99v.49H4.684c-1.121 0-2.103.674-2.41 1.957-.355 1.47-.37 2.387 0 3.921.274 1.142.929 1.956 2.05 1.956h1.327v-1.763c0-1.273 1.102-2.396 2.41-2.396h3.854c1.073 0 1.93-.884 1.93-1.961V4.077c0-1.046-.883-1.831-1.93-2.006-.663-.11-1.35-.16-2.01-.157ZM7.818 3.096c.399 0 .724.331.724.738a.729.729 0 0 1-.724.733.728.728 0 0 1-.724-.733c0-.407.324-.738.724-.738Z"/>
  <path fill="url(#b)" d="M14.325 6.038V7.75c0 1.328-1.126 2.446-2.41 2.446H8.061c-1.056 0-1.929.904-1.929 1.96v3.675c0 1.046.91 1.66 1.93 1.96 1.22.36 2.392.424 3.853 0 .971-.28 1.93-.847 1.93-1.96v-1.47H9.99v-.49h5.783c1.122 0 1.54-.783 1.93-1.957.403-1.209.385-2.37 0-3.921-.277-1.117-.807-1.957-1.93-1.957h-1.448Zm-2.167 9.304c.4 0 .724.327.724.733a.731.731 0 0 1-.724.737.732.732 0 0 1-.724-.737.73.73 0 0 1 .724-.733Z"/>
  <defs>
    <linearGradient id="a" x1="1.615" x2="10.514" y1="2.373" y2="9.963" gradientUnits="userSpaceOnUse">
      <stop offset="1" stop-color="#306998"/>
    </linearGradient>
    <linearGradient id="b" x1="13.862" x2="10.671" y1="14.68" y2="10.205" gradientUnits="userSpaceOnUse">
      <stop stop-color="#FFD43B"/>
    </linearGradient>
  </defs>
</svg>
