<svg xmlns="http://www.w3.org/2000/svg" width="19" height="20" fill="none" viewBox="0 0 19 20">
  <path fill="#007ACC" d="M-.688 9.986v9.766h19.532V.22H-.688v9.766Zm15.74-.781a2.43 2.43 0 0 1 1.221.703c.181.188.339.398.47.625 0 .025-.845.595-1.359.914-.018.012-.093-.069-.176-.192a1.108 1.108 0 0 0-.917-.552c-.593-.04-.974.27-.97.781a.715.715 0 0 0 .084.366c.13.27.372.431 1.13.76 1.4.601 1.998.998 2.37 1.562.415.625.508 1.634.226 2.381-.312.813-1.078 1.364-2.16 1.547a5.986 5.986 0 0 1-1.488-.016 3.593 3.593 0 0 1-1.983-1.023c-.18-.198-.53-.716-.508-.753.057-.043.117-.08.18-.114l.719-.413.56-.325.118.174c.197.283.45.524.74.71.625.327 1.479.282 1.9-.098a.849.849 0 0 0 .108-1.081c-.156-.217-.469-.4-1.342-.781-1.008-.435-1.442-.703-1.84-1.132a2.577 2.577 0 0 1-.535-.976 3.908 3.908 0 0 1-.034-1.25c.207-.973.937-1.653 2.003-1.855a4.948 4.948 0 0 1 1.483.04v-.002Zm-4.585.819v.8H7.931v7.223H6.133v-7.225H3.59v-.781c-.007-.27 0-.538.021-.807.01-.012 1.563-.018 3.438-.015h3.408l.01.805Z"/>
</svg>
